<svg width="358" height="410" viewBox="0 0 358 410" fill="none" xmlns="http://www.w3.org/2000/svg">
<g id="istanbul-metro-logo">
<path id="arrow" d="M301.059 303.922H258.313V195.127V131.405L178.833 190.535L98.9781 131.405V303.922H56.2321H35L178.739 410L322.291 303.922H301.059Z" fill="#E10916"/>
<path id="arc-t" d="M178.132 138.182L299.605 47.7536C266.388 17.3032 222.918 0.405029 177.803 0.405029C132.688 0.405029 89.2176 17.3032 56 47.7536L178.132 138.182Z" fill="#012269"/>
<path id="arc-l" d="M56.3686 303.948H55.8586C54.8119 302.967 53.7766 301.972 52.753 300.965C36.1764 284.648 22.9855 265.233 13.934 243.829C4.8824 222.426 0.147547 199.453 0 176.223C0.043258 152.191 5.07384 128.429 14.775 106.431C24.4761 84.433 38.6379 64.6764 56.3686 48.405V303.948Z" fill="#012269"/>
<path id="arc-r" d="M301 48.405C318.731 64.6764 332.892 84.433 342.594 106.431C352.295 128.429 357.325 152.191 357.369 176.223C357.221 199.453 352.486 222.426 343.435 243.829C334.383 265.233 321.192 284.648 304.616 300.965C303.592 301.972 302.557 302.967 301.51 303.948H301V48.405Z" fill="#012269"/>
<path id="M" d="M301 303.922V48.4047L299.605 47.7533L178.132 138.182L56 47.7533L56.3682 48.4047V303.609C56.4809 303.713 56.593 303.818 56.7061 303.922H98.9785V131.405L178.833 190.535L258.312 131.405V303.922H301Z" fill="white"/>
</g>
</svg>
